<?xml version="1.0" encoding="utf-8"?>
<?xml-stylesheet type="text/xsl" href="rss1.xsl"?>
<rss version="2.0" xmlns:atom="http://www.w3.org/2005/Atom" xmlns:content="http://purl.org/rss/1.0/modules/content/" xmlns:dc="http://purl.org/dc/elements/1.1/" xmlns:media="http://search.yahoo.com/mrss/">
<channel>
 <title>Getty</title>
 <link>http://www.gettyimg.com/</link>
 <atom:link href="http://www.gettyimg.com/" rel="self" type="application/rss+xml" />

 
                <item>
                <title><![CDATA[【Albums (lossless)】DTSHD - The Flaming Lips 4 Surround Sound Albums - 5.1 96khz 24bit DTSHD Sourced from DVDA and 5.1 DD DVD Video]]></title>
                <link><![CDATA[https://sharemania.us/threads/dtshd-the-flaming-lips-4-surround-sound-albums-5-1-96khz-24bit-dtshd-sourced-from-dvda-and-5-1-dd-dvd-video.251428/]]></link>
                <description><![CDATA[<article>
<blockquote class="messageText SelectQuoteContainer ugc baseHtml">
Many years ago when i first got into surround sound music and was searching for "Official / Original" content i came across the flaming lips through their surround sound DVD Audio discs. Then i became a fan of the band as they make amazing music. I collected the DVD Audio discs then extracted the audio from them and converted the lossless audio to DTS-HD to save space and encapsulate in format suitable for blu ray then made AVCHD blu rays to play them on my home theater through my ps3 at the time. <br>
<br>
After seeing the Dolby Atmos Release of Yoshimi the other day it inspired me to make rips from my old AVCHD files. Maybe some day i will upload the AVCHD's as they are pretty neat. I took the video from the dvd video releases of the surround sound albums and merged it with the lossless audio (the DVDV only had loss DD and DTS audio) and also included the music videos from the DVDV and made menus in i think nero blu ray creator... This is back is 2010 or maybe earlier. Maybe the original files are still kicking on the internet? i released them under the release group banner PS3AVCHD. I believe i was into usenet primarily at the time so thats how i would have shared them.<br>
<br>
At any rate for your listening pleasure i present 3 flaming lips albums in lossless 5.1 96khz 24bit surround sound:<br>
<br>
Yoshimi Battles the Pink Robots<br>
At War With The Mystics<br>
The Soft Bulletin<br>
<br>
And 1 flaming lips album as i came across it in dvd video (i spent a bit of time looking at converting it myself, but after a few hours spent on the first 3 albums which i was already familiar with how to process i gave up for today, the Zaireeka DVD looks a lot more complicated with numerous audio tracks.. I suspect due in part to how it was made:<br>
<br>
Zaireeka<i> - The album consists of four <a href="https://en.wikipedia.org/wiki/Compact_Disc" target="_blank" class="externalLink" rel="nofollow">CDs</a> designed so that when played simultaneously on four separate <a href="https://en.wikipedia.org/wiki/Audio_system" target="_blank" class="externalLink" rel="nofollow">audio systems</a>, they would produce a <a href="https://en.wikipedia.org/wiki/Harmonic" target="_blank" class="externalLink" rel="nofollow">harmonic</a> or juxtaposed sound; the discs could also be played in different combinations, omitting one, two or three discs. Each of its eight songs consists of four stereo tracks, one from each CD. </i><br>
<br>
----------------------------------------------------------------------------------------------<br>
<br>
The Flaming Lips - Yoshimi Battles the Pink Robots<br>
Released: July 16, 2002<br>
Genre: <a href="https://www.google.com/search?sca_esv=ac57164e41e9010e&amp;sca_upv=1&amp;rlz=1C1CHBD_enCA972CA972&amp;sxsrf=ADLYWIKtK6zcRQjxQ8K5FEpFJBDJ6dDbUA:1722346008136&amp;q=&amp;si=ACC90nzx_D3_zUKRnpAjmO0UBLNxnt7EyN4YYdru6U3bxLI-L5sm8tDogKLl-3-ttDNeCtL_QhntqwPoLw1YKCD7KOZdVxyS9hQik7EcjwhahiDy4AvwvEC9b8LMkocWpfEdgAPvfzpaJ9iodVuEa6X7LUd19iEOlkZELHOtkO1Uxshzf5BNuKRZG7cHH4fttx0W8fZfI5hgO6KFtCnorxvKgX1-Xsm6qv_cSUjlQSh7GkRb4XcK1tsJYoDYOAqmo05hTD2cCVM6&amp;sa=X&amp;ved=2ahUKEwiE6_rv7s6HAxVcHDQIHZdOOGEQmxMoAHoECDgQAg" target="_blank" class="externalLink" rel="nofollow">Dream pop</a>, <a href="https://www.google.com/search?sca_esv=ac57164e41e9010e&amp;sca_upv=1&amp;rlz=1C1CHBD_enCA972CA972&amp;sxsrf=ADLYWIKtK6zcRQjxQ8K5FEpFJBDJ6dDbUA:1722346008136&amp;q=&amp;si=ACC90nzx_D3_zUKRnpAjmO0UBLNxnt7EyN4YYdru6U3bxLI-L0vYSL57t2h71Gof1_MeT4YG5Djse8PicBWMQ7gatlmVWXH9Fa33EmDtpc3Fzh8hojJiZxSaafpGa3JU65JJu1A9WjqFprYoy2MmAp2aaJai7rAnB6FfTfHatYP0aXH-lySqqFF7bT8B9hCeczyHC10m-eky_PtYc1JNtfAxZrJxvyiAhTrsiy2h91d52fp0oDnWPY3TbilQAaZIJzLDQNypLd5l&amp;sa=X&amp;ved=2ahUKEwiE6_rv7s6HAxVcHDQIHZdOOGEQmxMoAXoECDgQAw" target="_blank" class="externalLink" rel="nofollow">Space rock</a>, <a href="https://www.google.com/search?sca_esv=ac57164e41e9010e&amp;sca_upv=1&amp;rlz=1C1CHBD_enCA972CA972&amp;sxsrf=ADLYWIKtK6zcRQjxQ8K5FEpFJBDJ6dDbUA:1722346008136&amp;q=&amp;si=ACC90nzx_D3_zUKRnpAjmO0UBLNxnt7EyN4YYdru6U3bxLI-LwoUnTtUKf5enX-uEEV6RxmHfgwwW6xhE_BCK5Csetw0mRi77btK4jujZaS621acJy5zTkUPdXRxTONm-4mBu_CG2lVE2Cb9TeDVUGajCICVecUt7UaJI8b3k4q8ogxh1MkZGvG3qm_lvGXUL0j2nSu9YFyviueOZ58clcvJ8DkLIsIwzVk56LUozzkv1QfLuQJPjrMOoj52xtkQUXW-knxRmbjl&amp;sa=X&amp;ved=2ahUKEwiE6_rv7s6HAxVcHDQIHZdOOGEQmxMoAnoECDgQBA" target="_blank" class="externalLink" rel="nofollow">Acid rock</a>, <a href="https://www.google.com/search?sca_esv=ac57164e41e9010e&amp;sca_upv=1&amp;rlz=1C1CHBD_enCA972CA972&amp;sxsrf=ADLYWIKtK6zcRQjxQ8K5FEpFJBDJ6dDbUA:1722346008136&amp;q=&amp;si=ACC90nzx_D3_zUKRnpAjmO0UBLNxnt7EyN4YYdru6U3bxLI-L2qewVGzBoaQyj-3zt9a4splfiSTRsvzkKuS1uRqxJd0f5BlsB9FF-RAsIo4SU8a2HvrJ0BeILeXRrHQcUOguDbU0aSypJANRDSvYzB22qDIYwW98bYYvP2U7s5XWYHsok_gN5oYuMHlR5yc6Qp2g1Nit-uRc6KtUsfWEfIiR-K5c4VzLZZLe517Ts9ZmRGyfe2r7w7bxSlT1NkGEW2dK3pIk14a&amp;sa=X&amp;ved=2ahUKEwiE6_rv7s6HAxVcHDQIHZdOOGEQmxMoA3oECDgQBQ" target="_blank" class="externalLink" rel="nofollow">Neo-psychedelia</a><br>
Format / Quality: m4a / 5.1 DTS-HD 96khz 24bit - Sourced from DVD Audio<br>
<br>
<img src="https://upload.wikimedia.org/wikipedia/en/7/7c/TheFlamingLips-YoshimiBattlesThePinkRobots.jpg" class="bbCodeImage LbImage" alt="[​IMG]" data-url="https://upload.wikimedia.org/wikipedia/en/7/7c/TheFlamingLips-YoshimiBattlesThePinkRobots.jpg" style=""> <br>
<br>
<div class="ToggleTriggerAnchor bbCodeSpoilerContainer">
<button type="button" class="button bbCodeSpoilerButton ToggleTrigger Tooltip JsOnly" data-target="> .SpoilerTarget"><span>Spoiler: <span class="SpoilerTitle">Tracklist - Yoshimi Battles The Pink Robots</span></span></button>
<div class="SpoilerTarget bbCodeSpoilerText"><b>1.</b> "Fight Test" 4:14<br>
<b>2.</b> "One More Robot/Sympathy 3000-21" 4:59<br>
<b>3.</b> "Yoshimi Battles the Pink Robots Pt. 1" 4:45<br>
<b>4.</b> "Yoshimi Battles the Pink Robots Pt. 2" 2:57<br>
<b>5.</b> "In the Morning of the Magicians" 6:19<br>
<b>6.</b> "Ego Tripping at the Gates of Hell" 4:33<br>
<b>7.</b> "Are You a Hypnotist??" 4:44<br>
<b>8.</b> "It's Summertime" 5:45<br>
<b>9.</b> "Do You Realize??" 3:32<br>
<b>10.</b> "All We Have Is Now" 3:53<br>
<b>11.</b> "Approaching Pavonis Mons by Balloon (Utopia Planitia)" 3:12</div>
</div><br>
<div class="ToggleTriggerAnchor bbCodeSpoilerContainer">
<button type="button" class="button bbCodeSpoilerButton ToggleTrigger Tooltip JsOnly" data-target="> .SpoilerTarget"><span>Spoiler: <span class="SpoilerTitle">Mediainfo - Yoshimi Battles The Pink Robots</span></span></button>
<div class="SpoilerTarget bbCodeSpoilerText">General<br>
Complete name : F:\BLURAY MUSIC\0_Audio Only\The Flaming Lips - Yoshimi Battles the Pink Robots - DTSHD from DVDA\01. Fight Test.m4a<br>
Format : MPEG-4<br>
Format profile : Base Media<br>
Codec ID : isom (isom/iso2/mp41)<br>
File size : 272 MiB<br>
Duration : 4 min 14 s<br>
Overall bit rate mode : Variable<br>
Overall bit rate : 8 967 kb/s<br>
Album : yoshimi battles<br>
Album/Performer : The Flaming Lips<br>
Track name : Fight Test<br>
Track name/Position : 1<br>
Performer : The Flaming Lips<br>
Genre : Alternative Rock<br>
Recorded date : 2002<br>
Writing application : Lavf61.1.100<br>
MusicBrainz Artist Id : 1f43d76f-8edf-44f6-aaf1-b65f05ad9402<br>
MusicBrainz Album Artist Id : 1f43d76f-8edf-44f6-aaf1-b65f05ad9402<br>
MusicBrainz Album Id : 03685641-a0c4-4221-944e-2ef762f09ca2<br>
MusicBrainz Release Group Id : 54b1ad4e-7e86-308d-b053-a0843f6abbdb<br>
Audio<br>
ID : 1<br>
Format : DTS x96 XLL<br>
Format/Info : Digital Theater Systems<br>
Commercial name : DTS-HD Master Audio<br>
Codec ID : mp4a-A9<br>
Duration : 4 min 14 s<br>
Bit rate mode : Variable<br>
Bit rate : 8 958 kb/s<br>
Channel(s) : 6 channels<br>
Channel layout : C L R Ls Rs LFE<br>
Sampling rate : 96.0 kHz<br>
Frame rate : 93.750 FPS (1024 SPF)<br>
Bit depth : 24 bits<br>
Compression mode : Lossless<br>
Stream size : 272 MiB (100%)<br>
Title : Surround 5.1<br>
Language : English<br>
Default : Yes<br>
Alternate group : 1</div>
</div><br>
Yoshimi Battles The Pink Robots<br>
<div class="bbCodeBlock bbCodeVfcHH HiddenContent">
<div class="attribution type">Hidden Content:</div>
<blockquote>You must reply before you can see the hidden data contained here.</blockquote>
</div>
<div class="bbCodeBlock bbCodeVfcHH HiddenContent">
<div class="attribution type">Hidden Content:</div>
<blockquote>You must either reply or click 'Like' to see the hidden information contained here.</blockquote>
</div>----------------------------------------------------------------------------------------------<br>
The Flaming Lips - At War With The Mystics<br>
Released: April 3, 2006<br>
Genre: <a href="https://www.google.com/search?sca_esv=762b243e168af4eb&amp;sca_upv=1&amp;rlz=1C1CHBD_enCA972CA972&amp;sxsrf=ADLYWIKlbj0ReWr2anKmRr1uNyMiknNcJA:1722348931274&amp;q=&amp;si=ACC90nyvvWro6QmnyY1IfSdgk5wwjB1r8BGd_IWRjXqmKPQqm9h90C99BbKaFGt_rGiXU965Bl8q5CmwJfZMORwEHwq33rHlMBvXIwbg_kLvIODvCY_Q8gkorWNBytwrdz19adOry9L-gPgqo5JgTIYaVCYAnI4f5O0-7BeJn9loyNU2kSCtvTbV2ZmCL-yEixBkRJzKrFMVmtERl1kNyaUaLLJObi3ftkcXKgzMPE56OygratXdTkQ%3D&amp;sa=X&amp;ved=2ahUKEwiegunh-c6HAxW4lYkEHXmVA9QQmxMoAHoECB8QAg" target="_blank" class="externalLink" rel="nofollow">Rock</a>, <a href="https://www.google.com/search?sca_esv=762b243e168af4eb&amp;sca_upv=1&amp;rlz=1C1CHBD_enCA972CA972&amp;sxsrf=ADLYWIKlbj0ReWr2anKmRr1uNyMiknNcJA:1722348931274&amp;q=&amp;si=ACC90nyvvWro6QmnyY1IfSdgk5wwjB1r8BGd_IWRjXqmKPQqm2hJXFNAvK3BFmPVpRtT5OnzPcYG1eLPTwDH1lZZXK658kCesovjO9nnbvyDWPcTcUfZw-omB3vvHMWXHC6oXKJCwylRSH4rAgVKcG-brIa111gJhyWEjhZZYMshL2MzjQ4ZsELlkm2kCy6OamJD7ykkHcLw04uQuHox22-VhjdABVB5CIzmoX-CpGpyTxhUxLpurVY%3D&amp;sa=X&amp;ved=2ahUKEwiegunh-c6HAxW4lYkEHXmVA9QQmxMoAXoECB8QAw" target="_blank" class="externalLink" rel="nofollow">Psychedelic rock</a>, <a href="https://www.google.com/search?sca_esv=762b243e168af4eb&amp;sca_upv=1&amp;rlz=1C1CHBD_enCA972CA972&amp;sxsrf=ADLYWIKlbj0ReWr2anKmRr1uNyMiknNcJA:1722348931274&amp;q=&amp;si=ACC90nzx_D3_zUKRnpAjmO0UBLNxnt7EyN4YYdru6U3bxLI-L8NkArIcjNBwVSkTe8RYBJy6mvJLComATKpLcd6s1yZjOeJ2R_hWzExs3UujKKvbD81Pq3S4yafw3-iu_PSYc177NHdfeKv9x6y0LxbF4gb2MNgcMFkuK4NvXbCzoQJ9aFIoSqTYE9rU-uWjQObbmW_U71S_iUumsJ6SiUMbZMI0aBNOqtGNomRVfjYTPHNnJ7cli4VnxBug-d55SWOaQs2v3uin&amp;sa=X&amp;ved=2ahUKEwiegunh-c6HAxW4lYkEHXmVA9QQmxMoAnoECB8QBA" target="_blank" class="externalLink" rel="nofollow">Alternative rock</a>, <a href="https://www.google.com/search?sca_esv=762b243e168af4eb&amp;sca_upv=1&amp;rlz=1C1CHBD_enCA972CA972&amp;sxsrf=ADLYWIKlbj0ReWr2anKmRr1uNyMiknNcJA:1722348931274&amp;q=&amp;si=ACC90nzx_D3_zUKRnpAjmO0UBLNxnt7EyN4YYdru6U3bxLI-L2qewVGzBoaQyj-3zt9a4splfiSTRsvzkKuS1uRqxJd0f5BlsB9FF-RAsIo4SU8a2N0r4V7ilyj75c0XDIlY7K-xsuKg7xO5e3PIELQ1ouo2wsnIuJH9zsZGr8A-YPnM3UBpH63EIgP0IqVwHjUezMdsQ47S-K43EGQEf7gkdza_ewEWSRqcSqZdRXW71yi4Fkd5jN55vslk8gf7phy1M1MuVlPH&amp;sa=X&amp;ved=2ahUKEwiegunh-c6HAxW4lYkEHXmVA9QQmxMoA3oECB8QBQ" target="_blank" class="externalLink" rel="nofollow">Neo-psychedelia</a>, <a href="https://www.google.com/search?sca_esv=762b243e168af4eb&amp;sca_upv=1&amp;rlz=1C1CHBD_enCA972CA972&amp;sxsrf=ADLYWIKlbj0ReWr2anKmRr1uNyMiknNcJA:1722348931274&amp;q=&amp;si=ACC90nzx_D3_zUKRnpAjmO0UBLNxnt7EyN4YYdru6U3bxLI-L1VFtDBf8IvfvUKjJwR4DPogXWRWKp5FAG2g6TxLnYCla7MMhG2vqRQ0sIIeFWb_Ft1a4a-P6SM6pzqM-dsVXXQNJGxM8Jk_fKjxb1AwKuv8wF7mRy5MvN8c1fDJ_jPiL8UgCBpwH_J_Pj9Lp6hI5E4_iAKDBI6HNojLJWc-pQBLgZ59hKXoQQq0JwCVen9Rvp5Yr6HiFqzRwW5yo044x6VTXpCC&amp;sa=X&amp;ved=2ahUKEwiegunh-c6HAxW4lYkEHXmVA9QQmxMoBHoECB8QBg" target="_blank" class="externalLink" rel="nofollow">Psychedelic pop</a>, <a href="https://www.google.com/search?sca_esv=762b243e168af4eb&amp;sca_upv=1&amp;rlz=1C1CHBD_enCA972CA972&amp;sxsrf=ADLYWIKlbj0ReWr2anKmRr1uNyMiknNcJA:1722348931274&amp;q=&amp;si=ACC90nzx_D3_zUKRnpAjmO0UBLNxnt7EyN4YYdru6U3bxLI-L5sm8tDogKLl-3-ttDNeCtL_QhntqwPoLw1YKCD7KOZdVxyS9hQik7EcjwhahiDy4G6MeO3sooOVbrWH1CcgVbiwpsW447cpx97QU72kvUwSAcoflXUPu-GvzXwLv7OFgdDWy9OUIVdgHq33EgfQf7ov_DJUzzxstrzoVYI2SJMLfkUqEtlWmb_hjXLT0n5RLX38PMIJP5h7tbNpyAOOPIqsOCFC&amp;sa=X&amp;ved=2ahUKEwiegunh-c6HAxW4lYkEHXmVA9QQmxMoBXoECB8QBw" target="_blank" class="externalLink" rel="nofollow">Dream pop</a>, <a href="https://www.google.com/search?sca_esv=762b243e168af4eb&amp;sca_upv=1&amp;rlz=1C1CHBD_enCA972CA972&amp;sxsrf=ADLYWIKlbj0ReWr2anKmRr1uNyMiknNcJA:1722348931274&amp;q=&amp;si=ACC90nzx_D3_zUKRnpAjmO0UBLNxnt7EyN4YYdru6U3bxLI-L0vYSL57t2h71Gof1_MeT4YG5Djse8PicBWMQ7gatlmVWXH9Fa33EmDtpc3Fzh8hosyxYZPlJc5SUQ42sKSx5M2E72A5Lp_A520ABBcmZgjGkDDwNELB4847oJULLyvsnVy80X53hjTt7x18Xf7NDKN6PwzbY2uIv-uPwByvsKxKMNzBrxl39y7tjT9AKEWNRwXbAfgat-snyZXRV-ZUzi6UK8-E&amp;sa=X&amp;ved=2ahUKEwiegunh-c6HAxW4lYkEHXmVA9QQmxMoBnoECB8QCA" target="_blank" class="externalLink" rel="nofollow">Space rock</a><br>
Format / Quality: m4a / 5.1 DTS-HD 96khz 24bit - Sourced from DVD Audio<br>
<br>
<img src="https://upload.wikimedia.org/wikipedia/en/b/bd/The_Flaming_Lips_-_At_War_with_the_Mystics.jpg" class="bbCodeImage LbImage" alt="[​IMG]" data-url="https://upload.wikimedia.org/wikipedia/en/b/bd/The_Flaming_Lips_-_At_War_with_the_Mystics.jpg" style=""> <br>
<br>
<div class="ToggleTriggerAnchor bbCodeSpoilerContainer">
<button type="button" class="button bbCodeSpoilerButton ToggleTrigger Tooltip JsOnly" data-target="> .SpoilerTarget"><span>Spoiler: <span class="SpoilerTitle">Tracklist - At War With The Mystics</span></span></button>
<div class="SpoilerTarget bbCodeSpoilerText">1. "The Yeah Yeah Yeah Song (With All Your Power)" 5:22<br>
2. "Free Radicals (A Hallucination of the Christmas Skeleton Pleading with a Suicide Bomber)" 3:40<br>
3. "The Sound of Failure / It's Dark... Is It Always This Dark??" 7:18<br>
4. "My Cosmic Autumn Rebellion (The Inner Life as Blazing Shield of Defiance and Optimism as Celestial Spear of Action)" 5:01<br>
5. "Vein of Stars" 4:15<br>
6. "The Wizard Turns On... The Giant Silver Flashlight And Puts On His Werewolf Moccasins" 3:45<br>
7. "It Overtakes Me / The Stars Are So Big... I Am So Small... Do I Stand a Chance?" 6:55<br>
8. "Mr. Ambulance Driver" 4:22<br>
9. "Haven't Got a Clue" 3:23<br>
10. "The W.A.N.D. (The Will Always Negates Defeat)" 3:43<br>
11. "Pompeii am Götterdämmerung" 4:22<br>
12. "Goin' On" 3:37</div>
</div><br>
<div class="ToggleTriggerAnchor bbCodeSpoilerContainer">
<button type="button" class="button bbCodeSpoilerButton ToggleTrigger Tooltip JsOnly" data-target="> .SpoilerTarget"><span>Spoiler: <span class="SpoilerTitle">Mediainfo - At War With The Mystics</span></span></button>
<div class="SpoilerTarget bbCodeSpoilerText">General<br>
Complete name : F:\BLURAY MUSIC\The Flaming Lips At War With The Mystics\01. The Yeah Yeah Yeah Song (With All Your Power).m4a<br>
Format : MPEG-4<br>
Format profile : Base Media<br>
Codec ID : isom (isom/iso2/mp41)<br>
File size : 321 MiB<br>
Duration : 5 min 28 s<br>
Overall bit rate mode : Variable<br>
Overall bit rate : 8 219 kb/s<br>
Album : at war with the mystics<br>
Album/Performer : The Flaming Lips<br>
Track name : The Yeah Yeah Yeah Song (With All Your Power)<br>
Track name/Position : 1<br>
Performer : The Flaming Lips<br>
Genre : Alternative Rock<br>
Recorded date : 2006<br>
Writing application : Lavf61.1.100<br>
MusicBrainz Artist Id : 1f43d76f-8edf-44f6-aaf1-b65f05ad9402<br>
MusicBrainz Album Artist Id : 1f43d76f-8edf-44f6-aaf1-b65f05ad9402<br>
MusicBrainz Album Id : 08fb714d-c343-34c5-bb90-8e8b3b78c550<br>
MusicBrainz Release Group Id : 40413103-e161-3130-8a4d-a06ead0d417b<br>
Audio<br>
ID : 1<br>
Format : DTS XLL<br>
Format/Info : Digital Theater Systems<br>
Commercial name : DTS-HD Master Audio<br>
Codec ID : mp4a-A9<br>
Duration : 5 min 28 s<br>
Bit rate mode : Variable<br>
Bit rate : 8 210 kb/s<br>
Channel(s) : 6 channels<br>
Channel layout : C L R Ls Rs LFE<br>
Sampling rate : 96.0 kHz<br>
Frame rate : 93.750 FPS (1024 SPF)<br>
Bit depth : 24 bits<br>
Compression mode : Lossless<br>
Stream size : 321 MiB (100%)<br>
Title : Surround 5.1<br>
Language : English<br>
Default : Yes<br>
Alternate group : 1</div>
</div><br>
At War With The Mystics<br>
<div class="bbCodeBlock bbCodeVfcHH HiddenContent">
<div class="attribution type">Hidden Content:</div>
<blockquote>You must reply before you can see the hidden data contained here.</blockquote>
</div>
<div class="bbCodeBlock bbCodeVfcHH HiddenContent">
<div class="attribution type">Hidden Content:</div>
<blockquote>You must either reply or click 'Like' to see the hidden information contained here.</blockquote>
</div>----------------------------------------------------------------------------------------------<br>
The Flaming Lips - The Soft Bulletin<br>
Released: May 17, 1999<br>
Genre: <a href="https://www.google.com/search?sa=X&amp;sca_esv=762b243e168af4eb&amp;sca_upv=1&amp;rlz=1C1CHBD_enCA972CA972&amp;sxsrf=ADLYWIK6ZKxtDyOBzWKTKx-IEX_eduD1rA:1722349249391&amp;q=&amp;si=ACC90nyvvWro6QmnyY1IfSdgk5wwjB1r8BGd_IWRjXqmKPQqm3lOOtP4nb0O4blhcrMHvVlUJj7g9nWaM1QaHISlKqNFXCXW-7_jLHTk6MRj9kVOaA2fCBO4lRVSLiLYY53B9bgeWpqlCZV6avSIdwJUXUP5161pBPvfNGcHSYjKqXVcduQP7e_VVfH2YWLgx869STx_c6CYgRVglZRzuJt4dv2F1ZUzRzeLGTni3ZA3N0xnENwLXVdZYR4JpSzyTpNg6diZpIjq&amp;ved=2ahUKEwi-scH5-s6HAxVYjIkEHUY7AwkQmxMoAHoECCkQAg&amp;cshid=1722349254922950&amp;biw=1707&amp;bih=799&amp;dpr=1.2" target="_blank" class="externalLink" rel="nofollow">Psychedelic rock</a>, <a href="https://www.google.com/search?sa=X&amp;sca_esv=762b243e168af4eb&amp;sca_upv=1&amp;rlz=1C1CHBD_enCA972CA972&amp;sxsrf=ADLYWIK6ZKxtDyOBzWKTKx-IEX_eduD1rA:1722349249391&amp;q=&amp;si=ACC90nzx_D3_zUKRnpAjmO0UBLNxnt7EyN4YYdru6U3bxLI-L-hH31-noQ1SU4yprO7te6Yi3_hPKBYVNhxJyM6uAmrcT3fW5GKp4J2DesXNUfWCiDIOjNHAuR4sagFAsjjzqk-a9CAsC375hcAiNyTiGj6dV4yPzADvNaf1kqGZTqc-7llt7FUsYz5NgoRFoYN3KIWXbIEpyeNguv34awu0qb1y-GFTCgi2OlRKydgO4bLYbgpUrkHg85SR7yb6BI1ovxDrgris&amp;ved=2ahUKEwi-scH5-s6HAxVYjIkEHUY7AwkQmxMoAXoECCkQAw&amp;cshid=1722349254922950" target="_blank" class="externalLink" rel="nofollow">Alternative rock</a>, <a href="https://www.google.com/search?sa=X&amp;sca_esv=762b243e168af4eb&amp;sca_upv=1&amp;rlz=1C1CHBD_enCA972CA972&amp;sxsrf=ADLYWIK6ZKxtDyOBzWKTKx-IEX_eduD1rA:1722349249391&amp;q=&amp;si=ACC90nzx_D3_zUKRnpAjmO0UBLNxnt7EyN4YYdru6U3bxLI-Lwj8ORBtlSU7puvrPfeqeuj-Mdo1GEudu0BbwBDNPCA0vgU0v9KGMg9Gjq9HltM7Uul9jsSDeFhpN-BiuIc2CjJWxDkYoXHzeKZUGDWT2kbu3WkvElHlHcSm800Nmm869qFgaG-Bp5v1aBeXgrFO1ouzt0EpdSZuvx0jhrmp4_6TJxrZpY2CIwjrW-SjQ8Z5j9ixY9l0NEngBwRDgd1Ypvk3DWNj&amp;ved=2ahUKEwi-scH5-s6HAxVYjIkEHUY7AwkQmxMoAnoECCkQBA&amp;cshid=1722349254922950" target="_blank" class="externalLink" rel="nofollow">Neo-psychedelia</a><br>
Format / Quality: m4a / 5.1 DTS-HD 96khz 24bit - Sourced from DVD Audio<br>
<br>
<img src="https://upload.wikimedia.org/wikipedia/en/9/9d/Soft_Bulletin_cover.jpg" class="bbCodeImage LbImage" alt="[​IMG]" data-url="https://upload.wikimedia.org/wikipedia/en/9/9d/Soft_Bulletin_cover.jpg" style=""> <br>
<br>
<div class="ToggleTriggerAnchor bbCodeSpoilerContainer">
<button type="button" class="button bbCodeSpoilerButton ToggleTrigger Tooltip JsOnly" data-target="> .SpoilerTarget"><span>Spoiler: <span class="SpoilerTitle">Tracklist - The Soft Bulletin</span></span></button>
<div class="SpoilerTarget bbCodeSpoilerText"><ol>
<li>"Race for the Prize" – 4:18</li>
<li>"A Spoonful Weighs a Ton" – 3:32</li>
<li>"The Spark That Bled" – 5:55</li>
<li>"Slow Motion" – 3:49</li>
<li>"What Is the Light?" – 4:05</li>
<li>"The Observer" – 4:11</li>
<li>"Waitin' for a Superman" – 4:17</li>
<li>"Suddenly Everything Has Changed" – 3:54</li>
<li>"The Gash" – 4:02</li>
<li>"Feeling Yourself Disintegrate" – 5:23</li>
<li>"Sleeping on the Roof" – 3:04</li>
<li>"The Spiderbite Song" – 4:02</li>
<li>"Buggin'" – 3:22</li>
</ol></div>
</div><br>
<div class="ToggleTriggerAnchor bbCodeSpoilerContainer">
<button type="button" class="button bbCodeSpoilerButton ToggleTrigger Tooltip JsOnly" data-target="> .SpoilerTarget"><span>Spoiler: <span class="SpoilerTitle">Mediainfo - The Soft Bulletin</span></span></button>
<div class="SpoilerTarget bbCodeSpoilerText">General<br>
Complete name : C:\TempMakeMKV\The Flaming Lips - The Soft Bulletin\01. Race for the Prize.m4a<br>
Format : MPEG-4<br>
Format profile : Base Media<br>
Codec ID : isom (isom/iso2/mp41)<br>
File size : 289 MiB<br>
Duration : 4 min 17 s<br>
Overall bit rate mode : Variable<br>
Overall bit rate : 9 392 kb/s<br>
Album : The Soft Bulletin<br>
Album/Performer : The Flaming Lips<br>
Track name : Race for the Prize<br>
Track name/Position : 1<br>
Performer : The Flaming Lips<br>
Genre : Alternative Rock<br>
Recorded date : 1999<br>
Writing application : Lavf61.1.100<br>
MusicBrainz Artist Id : 1f43d76f-8edf-44f6-aaf1-b65f05ad9402<br>
MusicBrainz Album Artist Id : 1f43d76f-8edf-44f6-aaf1-b65f05ad9402<br>
MusicBrainz Album Id : 0d647f42-d9f2-4bc3-9844-954bd036eba6<br>
MusicBrainz Release Group Id : 1a021034-95d1-3a2d-bdca-73b25e455e49<br>
Audio<br>
ID : 1<br>
Format : DTS XLL<br>
Format/Info : Digital Theater Systems<br>
Commercial name : DTS-HD Master Audio<br>
Codec ID : mp4a-A9<br>
Duration : 4 min 17 s<br>
Bit rate mode : Variable<br>
Bit rate : 9 382 kb/s<br>
Channel(s) : 6 channels<br>
Channel layout : C L R Ls Rs LFE<br>
Sampling rate : 96.0 kHz<br>
Frame rate : 93.750 FPS (1024 SPF)<br>
Bit depth : 24 bits<br>
Compression mode : Lossless<br>
Stream size : 289 MiB (100%)<br>
Title : Surround 5.1<br>
Language : English<br>
Default : Yes<br>
Alternate group : 1</div>
</div><br>
The Soft Bulletin<br>
<div class="bbCodeBlock bbCodeVfcHH HiddenContent">
<div class="attribution type">Hidden Content:</div>
<blockquote>You must reply before you can see the hidden data contained here.</blockquote>
</div>
<div class="bbCodeBlock bbCodeVfcHH HiddenContent">
<div class="attribution type">Hidden Content:</div>
<blockquote>You must either reply or click 'Like' to see the hidden information contained here.</blockquote>
</div>----------------------------------------------------------------------------------------------<br>
The Flaming Lips - Zaireeka<br>
Released: October 28, 1997<br>
Genre: <a href="https://www.discogs.com/genre/electronic" target="_blank" class="externalLink" rel="nofollow">Electronic</a>, <a href="https://www.discogs.com/genre/rock" target="_blank" class="externalLink" rel="nofollow">Rock</a><br>
Format / Quality: DVD Video - Dolby Digital 5.1<br>
<br>
<img src="https://upload.wikimedia.org/wikipedia/en/c/c0/Zaireeka_cover.png" class="bbCodeImage LbImage" alt="[​IMG]" data-url="https://upload.wikimedia.org/wikipedia/en/c/c0/Zaireeka_cover.png" style=""> <br>
<br>
<div class="ToggleTriggerAnchor bbCodeSpoilerContainer">
<button type="button" class="button bbCodeSpoilerButton ToggleTrigger Tooltip JsOnly" data-target="> .SpoilerTarget"><span>Spoiler: <span class="SpoilerTitle">Tracklist - Zaireeka</span></span></button>
<div class="SpoilerTarget bbCodeSpoilerText"><ol>
<li><br>
<b>1.</b> "Okay, I'll Admit That I Really Don't Understand" 2:50<br>
<b>2.</b> "Riding to Work in the Year 2025 (Your Invisible Now)" 7:03<br>
<b>3.</b> "Thirty-Five Thousand Feet of Despair" 5:00<br>
<b>4.</b> "A Machine in India" 10:23<br>
<b>5.</b> "The Train Runs Over the Camel, But Is Derailed by the Gnat" 6:14<br>
<b>6.</b> "How Will We Know? (Futuristic Crashendos)" 2:23<br>
<b>7.</b> "March of the Rotten Vegetables" 6:28<br>
<b>8.</b> "The Big Ol' Bug Is the New Baby Now" 5:05</li>
</ol></div>
</div><br>
<div class="ToggleTriggerAnchor bbCodeSpoilerContainer">
<button type="button" class="button bbCodeSpoilerButton ToggleTrigger Tooltip JsOnly" data-target="> .SpoilerTarget"><span>Spoiler: <span class="SpoilerTitle">Mediainfo - Zaireeka</span></span></button>
<div class="SpoilerTarget bbCodeSpoilerText">General<br>
Complete name : F:\BLURAY MUSIC\The Flaming Lips - Zaireeka dvd video\VIDEO_TS\VIDEO_TS.BUP<br>
Format : DVD Video<br>
Format profile : Menu<br>
File size : 10.0 KiB<br>
Overall bit rate mode : Variable<br>
Frame rate : 29.970 FPS<br>
FileExtension_Invalid : ifo<br>
Video<br>
ID : 224 (0xE0)<br>
Format : MPEG Video<br>
Format version : Version 2<br>
Bit rate mode : Variable<br>
Width : 720 pixels<br>
Height : 480 pixels<br>
Display aspect ratio : 4:3<br>
Frame rate : 29.970 (29970/1000) FPS<br>
Standard : NTSC<br>
Compression mode : Lossy<br>
General<br>
Complete name : F:\BLURAY MUSIC\The Flaming Lips - Zaireeka dvd video\VIDEO_TS\VIDEO_TS.IFO<br>
Format : DVD Video<br>
Format profile : Menu<br>
File size : 10.0 KiB<br>
Overall bit rate mode : Variable<br>
Frame rate : 29.970 FPS<br>
Video<br>
ID : 224 (0xE0)<br>
Format : MPEG Video<br>
Format version : Version 2<br>
Bit rate mode : Variable<br>
Width : 720 pixels<br>
Height : 480 pixels<br>
Display aspect ratio : 4:3<br>
Frame rate : 29.970 (29970/1000) FPS<br>
Standard : NTSC<br>
Compression mode : Lossy<br>
General<br>
Complete name : F:\BLURAY MUSIC\The Flaming Lips - Zaireeka dvd video\VIDEO_TS\VTS_01_0.BUP<br>
Format : DVD Video<br>
Format profile : Program<br>
File size : 26.0 KiB<br>
Duration : 26 s 833 ms<br>
Overall bit rate mode : Variable<br>
Overall bit rate : 7 938 b/s<br>
Frame rate : 29.970 FPS<br>
FileExtension_Invalid : ifo<br>
Video<br>
ID : 224 (0xE0)<br>
Format : MPEG Video<br>
Format version : Version 2<br>
Duration : 26 s 833 ms<br>
Bit rate mode : Variable<br>
Width : 720 pixels<br>
Height : 480 pixels<br>
Display aspect ratio : 4:3<br>
Frame rate : 29.970 (29970/1000) FPS<br>
Standard : NTSC<br>
Compression mode : Lossy<br>
Audio<br>
ID : 189 (0xBD)-128 (0x80)<br>
Format : AC-3<br>
Format/Info : Audio Coding 3<br>
Duration : 26 s 833 ms<br>
Channel(s) : 2 channels<br>
Sampling rate : 48.0 kHz<br>
Compression mode : Lossy<br>
Menu<br>
Duration : 26 s 833 ms<br>
00:00:00.000 : Chapter 1<br>
List (Audio) : 0<br>
General<br>
Complete name : F:\BLURAY MUSIC\The Flaming Lips - Zaireeka dvd video\VIDEO_TS\VTS_01_0.IFO<br>
Format : DVD Video<br>
File size : 4.50 MiB<br>
Duration : 26 s 833 ms<br>
Overall bit rate mode : Variable<br>
Overall bit rate : 1 404 kb/s<br>
Frame rate : 29.970 FPS<br>
Video<br>
ID : 224 (0xE0)<br>
Format : MPEG Video<br>
Format version : Version 2<br>
Format profile : Main@Main<br>
Format settings : BVOP<br>
Format settings, BVOP : Yes<br>
Format settings, Matrix : Default<br>
Format settings, GOP : M=3, N=15<br>
Format settings, picture structure : Frame<br>
Duration : 26 s 833 ms<br>
Bit rate mode : Variable<br>
Bit rate : 1 184 kb/s<br>
Maximum bit rate : 8 000 kb/s<br>
Width : 720 pixels<br>
Height : 480 pixels<br>
Display aspect ratio : 4:3<br>
Frame rate : 29.970 (30000/1001) FPS<br>
Standard : NTSC<br>
Color space : YUV<br>
Chroma subsampling : 4:2:0<br>
Bit depth : 8 bits<br>
Scan type : Interlaced<br>
Scan order : Bottom Field First<br>
Compression mode : Lossy<br>
Bits/(Pixel*Frame) : 0.114<br>
Time code of first frame : 00:00:00:00<br>
Time code source : Group of pictures header<br>
GOP, Open/Closed : Open<br>
GOP, Open/Closed of first frame : Closed<br>
Stream size : 3.77 MiB (84%)<br>
intra_dc_precision : 9<br>
Source : VTS_01_1.VOB<br>
Audio<br>
ID : 189 (0xBD)-128 (0x80)<br>
Format : AC-3<br>
Format/Info : Audio Coding 3<br>
Commercial name : Dolby Digital<br>
Muxing mode : DVD-Video<br>
Duration : 26 s 833 ms<br>
Bit rate mode : Constant<br>
Bit rate : 192 kb/s<br>
Channel(s) : 2 channels<br>
Channel layout : L R<br>
Sampling rate : 48.0 kHz<br>
Frame rate : 31.250 FPS (1536 SPF)<br>
Compression mode : Lossy<br>
Stream size : 627 KiB (14%)<br>
Service kind : Complete Main<br>
bsid : 8<br>
Dialog Normalization : -27<br>
Dialog Normalization : -27 dB<br>
compr : -0.28<br>
compr : -0.28 dB<br>
dsurmod : 0<br>
acmod : 2<br>
lfeon : 0<br>
dialnorm_Average : -27<br>
dialnorm_Average : -27 dB<br>
dialnorm_Minimum : -27<br>
dialnorm_Minimum : -27 dB<br>
dialnorm_Maximum : -27<br>
dialnorm_Maximum : -27 dB<br>
dialnorm_Count : 836<br>
compr_Average : 5.51<br>
compr_Average : 5.51 dB<br>
compr_Minimum : 0.53<br>
compr_Minimum : 0.53 dB<br>
compr_Maximum : 6.02<br>
compr_Maximum : 6.02 dB<br>
compr_Count : 832<br>
dynrng_Average : 5.41<br>
dynrng_Average : 5.41 dB<br>
dynrng_Minimum : 0.00<br>
dynrng_Minimum : 0.00 dB<br>
dynrng_Maximum : 6.02<br>
dynrng_Maximum : 6.02 dB<br>
dynrng_Count : 836<br>
Source : VTS_01_1.VOB<br>
Menu<br>
Duration : 26 s 833 ms<br>
00:00:00.000 : Chapter 1<br>
List (Audio) : 0<br>
Source : VTS_01_1.VOB<br>
General<br>
Complete name : F:\BLURAY MUSIC\The Flaming Lips - Zaireeka dvd video\VIDEO_TS\VTS_01_0.VOB<br>
Format : MPEG-PS<br>
File size : 36.1 MiB<br>
Duration : 21 s 24 ms<br>
Overall bit rate mode : Variable<br>
Overall bit rate : 14.4 Mb/s<br>
Frame rate : 29.970 FPS<br>
Video<br>
ID : 224 (0xE0)<br>
Format : MPEG Video<br>
Format version : Version 2<br>
Format profile : Main@Main<br>
Format settings : BVOP<br>
Format settings, BVOP : Yes<br>
Format settings, Matrix : Default<br>
Format settings, GOP : M=3, N=15<br>
Duration : 367 ms<br>
Bit rate mode : Variable<br>
Bit rate : 13.7 Mb/s<br>
Maximum bit rate : 8 000 kb/s<br>
Width : 720 pixels<br>
Height : 480 pixels<br>
Display aspect ratio : 4:3<br>
Frame rate : 29.970 (30000/1001) FPS<br>
Standard : NTSC<br>
Color space : YUV<br>
Chroma subsampling : 4:2:0<br>
Bit depth : 8 bits<br>
Scan type : Progressive<br>
Compression mode : Lossy<br>
Bits/(Pixel*Frame) : 1.319<br>
Stream size : 612 KiB (2%)<br>
Audio<br>
ID : 189 (0xBD)-128 (0x80)<br>
Format : AC-3<br>
Format/Info : Audio Coding 3<br>
Commercial name : Dolby Digital<br>
Muxing mode : DVD-Video<br>
Duration : 21 s 24 ms<br>
Bit rate mode : Constant<br>
Bit rate : 448 kb/s<br>
Channel(s) : 6 channels<br>
Channel layout : L R C LFE Ls Rs<br>
Sampling rate : 48.0 kHz<br>
Frame rate : 31.250 FPS (1536 SPF)<br>
Compression mode : Lossy<br>
Stream size : 1.12 MiB (3%)<br>
Service kind : Complete Main<br>
Dialog Normalization : -27 dB<br>
compr : -0.86 dB<br>
cmixlev : -3.0 dB<br>
surmixlev : -3 dB<br>
dialnorm_Average : -27 dB<br>
dialnorm_Minimum : -27 dB<br>
dialnorm_Maximum : -27 dB<br>
Text<br>
ID : 189 (0xBD)-32 (0x20)<br>
Format : RLE<br>
Format/Info : Run-length encoding<br>
Muxing mode : DVD-Video<br>
Menu<br>
Format : DVD-Video<br>
General<br>
Complete name : F:\BLURAY MUSIC\The Flaming Lips - Zaireeka dvd video\VIDEO_TS\VTS_01_1.VOB<br>
Format : MPEG-PS<br>
File size : 4.48 MiB<br>
Duration : 26 s 752 ms<br>
Overall bit rate mode : Variable<br>
Overall bit rate : 1 404 kb/s<br>
Frame rate : 29.970 FPS<br>
Video<br>
ID : 224 (0xE0)<br>
Format : MPEG Video<br>
Format version : Version 2<br>
Format profile : Main@Main<br>
Format settings : BVOP<br>
Format settings, BVOP : Yes<br>
Format settings, Matrix : Default<br>
Format settings, GOP : M=3, N=15<br>
Format settings, picture structure : Frame<br>
Duration : 26 s 727 ms<br>
Bit rate mode : Variable<br>
Bit rate : 1 184 kb/s<br>
Maximum bit rate : 8 000 kb/s<br>
Width : 720 pixels<br>
Height : 480 pixels<br>
Display aspect ratio : 4:3<br>
Frame rate : 29.970 (30000/1001) FPS<br>
Standard : NTSC<br>
Color space : YUV<br>
Chroma subsampling : 4:2:0<br>
Bit depth : 8 bits<br>
Scan type : Interlaced<br>
Scan order : Bottom Field First<br>
Compression mode : Lossy<br>
Bits/(Pixel*Frame) : 0.114<br>
Time code of first frame : 00:00:00:00<br>
Time code source : Group of pictures header<br>
GOP, Open/Closed : Open<br>
GOP, Open/Closed of first frame : Closed<br>
Stream size : 3.77 MiB (84%)<br>
Audio<br>
ID : 189 (0xBD)-128 (0x80)<br>
Format : AC-3<br>
Format/Info : Audio Coding 3<br>
Commercial name : Dolby Digital<br>
Muxing mode : DVD-Video<br>
Duration : 26 s 752 ms<br>
Bit rate mode : Constant<br>
Bit rate : 192 kb/s<br>
Channel(s) : 2 channels<br>
Channel layout : L R<br>
Sampling rate : 48.0 kHz<br>
Frame rate : 31.250 FPS (1536 SPF)<br>
Compression mode : Lossy<br>
Stream size : 627 KiB (14%)<br>
Service kind : Complete Main<br>
Dialog Normalization : -27 dB<br>
compr : -0.28 dB<br>
dialnorm_Average : -27 dB<br>
dialnorm_Minimum : -27 dB<br>
dialnorm_Maximum : -27 dB<br>
Menu<br>
Format : DVD-Video<br>
General<br>
Complete name : F:\BLURAY MUSIC\The Flaming Lips - Zaireeka dvd video\VIDEO_TS\VTS_02_0.BUP<br>
Format : DVD Video<br>
Format profile : Program<br>
File size : 38.0 KiB<br>
Duration : 46 min 18 s<br>
Overall bit rate mode : Variable<br>
Overall bit rate : 112 b/s<br>
Frame rate : 29.970 FPS<br>
FileExtension_Invalid : ifo<br>
Video<br>
ID : 224 (0xE0)<br>
Format : MPEG Video<br>
Format version : Version 2<br>
Duration : 46 min 18 s<br>
Bit rate mode : Variable<br>
Width : 720 pixels<br>
Height : 480 pixels<br>
Display aspect ratio : 4:3<br>
Frame rate : 29.970 (29970/1000) FPS<br>
Standard : NTSC<br>
Compression mode : Lossy<br>
Audio #1<br>
ID : 189 (0xBD)-128 (0x80)<br>
Format : AC-3<br>
Format/Info : Audio Coding 3<br>
Duration : 46 min 18 s<br>
Channel(s) : 6 channels<br>
Sampling rate : 48.0 kHz<br>
Compression mode : Lossy<br>
Language : Zulu<br>
Audio #2<br>
ID : 189 (0xBD)-129 (0x81)<br>
Format : AC-3<br>
Format/Info : Audio Coding 3<br>
Duration : 46 min 18 s<br>
Channel(s) : 6 channels<br>
Sampling rate : 48.0 kHz<br>
Compression mode : Lossy<br>
Language : Kinyarwanda<br>
Audio #3<br>
ID : 189 (0xBD)-130 (0x82)<br>
Format : AC-3<br>
Format/Info : Audio Coding 3<br>
Duration : 46 min 18 s<br>
Channel(s) : 6 channels<br>
Sampling rate : 48.0 kHz<br>
Compression mode : Lossy<br>
Language : Faroese<br>
Audio #4<br>
ID : 189 (0xBD)-131 (0x83)<br>
Format : AC-3<br>
Format/Info : Audio Coding 3<br>
Duration : 46 min 18 s<br>
Channel(s) : 6 channels<br>
Sampling rate : 48.0 kHz<br>
Compression mode : Lossy<br>
Language : Panjabi<br>
Audio #5<br>
ID : 189 (0xBD)-132 (0x84)<br>
Format : AC-3<br>
Format/Info : Audio Coding 3<br>
Duration : 46 min 18 s<br>
Channel(s) : 6 channels<br>
Sampling rate : 48.0 kHz<br>
Compression mode : Lossy<br>
Language : Dzongkha<br>
Audio #6<br>
ID : 189 (0xBD)-133 (0x85)<br>
Format : AC-3<br>
Format/Info : Audio Coding 3<br>
Duration : 46 min 18 s<br>
Channel(s) : 6 channels<br>
Sampling rate : 48.0 kHz<br>
Compression mode : Lossy<br>
Language : Swahili<br>
Audio #7<br>
ID : 189 (0xBD)-134 (0x86)<br>
Format : AC-3<br>
Format/Info : Audio Coding 3<br>
Duration : 46 min 18 s<br>
Channel(s) : 6 channels<br>
Sampling rate : 48.0 kHz<br>
Compression mode : Lossy<br>
Language : Xhosa<br>
Audio #8<br>
ID : 189 (0xBD)-135 (0x87)<br>
Format : AC-3<br>
Format/Info : Audio Coding 3<br>
Duration : 46 min 18 s<br>
Channel(s) : 6 channels<br>
Sampling rate : 48.0 kHz<br>
Compression mode : Lossy<br>
Language : Azerbaijani<br>
Menu<br>
Duration : 46 min 18 s<br>
00:00:00.000 : Chapter 1<br>
00:02:51.933 : Chapter 2<br>
00:09:53.433 : Chapter 3<br>
00:14:52.433 : Chapter 4<br>
00:25:15.433 : Chapter 5<br>
00:31:28.433 : Chapter 6<br>
00:33:51.933 : Chapter 7<br>
00:40:18.933 : Chapter 8<br>
00:45:30.433 : Chapter 9<br>
List (Audio) : 0 / 1 / 2 / 3 / 4 / 5 / 6 / 7<br>
General<br>
Complete name : F:\BLURAY MUSIC\The Flaming Lips - Zaireeka dvd video\VIDEO_TS\VTS_02_0.IFO<br>
Format : DVD Video<br>
File size : 3.89 GiB<br>
Duration : 46 min 18 s<br>
Overall bit rate mode : Variable<br>
Overall bit rate : 12.0 Mb/s<br>
Frame rate : 29.970 FPS<br>
Video<br>
ID : 224 (0xE0)<br>
Format : MPEG Video<br>
Format version : Version 2<br>
Format profile : Main@Main<br>
Format settings : BVOP<br>
Format settings, BVOP : Yes<br>
Format settings, Matrix : Default<br>
Format settings, GOP : M=3, N=15<br>
Format settings, picture structure : Frame<br>
Duration : 46 min 18 s<br>
Bit rate mode : Variable<br>
Bit rate : 8 206 kb/s<br>
Maximum bit rate : 9 800 kb/s<br>
Width : 720 pixels<br>
Height : 480 pixels<br>
Display aspect ratio : 4:3<br>
Frame rate : 29.970 (30000/1001) FPS<br>
Standard : NTSC<br>
Color space : YUV<br>
Chroma subsampling : 4:2:0<br>
Bit depth : 8 bits<br>
Scan type : Interlaced<br>
Scan order : Bottom Field First<br>
Compression mode : Lossy<br>
Bits/(Pixel*Frame) : 0.792<br>
Time code of first frame : 00:00:00:00<br>
Time code source : Group of pictures header<br>
GOP, Open/Closed : Open<br>
GOP, Open/Closed of first frame : Closed<br>
Stream size : 2.66 GiB (68%)<br>
intra_dc_precision : 9<br>
Source : VTS_02_1.VOB<br>
Audio #1<br>
ID : 189 (0xBD)-128 (0x80)<br>
Format : AC-3<br>
Format/Info : Audio Coding 3<br>
Commercial name : Dolby Digital<br>
Muxing mode : DVD-Video<br>
Duration : 46 min 18 s<br>
Bit rate mode : Constant<br>
Bit rate : 448 kb/s<br>
Channel(s) : 6 channels<br>
Channel layout : L R C LFE Ls Rs<br>
Sampling rate : 48.0 kHz<br>
Frame rate : 31.250 FPS (1536 SPF)<br>
Compression mode : Lossy<br>
Stream size : 149 MiB (4%)<br>
Service kind : Complete Main<br>
bsid : 8<br>
Dialog Normalization : -27<br>
Dialog Normalization : -27 dB<br>
compr : -0.28<br>
compr : -0.28 dB<br>
acmod : 7<br>
lfeon : 1<br>
cmixlev : -3.0<br>
cmixlev : -3.0 dB<br>
surmixlev : -3 dB<br>
surmixlev : -3 dB<br>
dialnorm_Average : -27<br>
dialnorm_Average : -27 dB<br>
dialnorm_Minimum : -27<br>
dialnorm_Minimum : -27 dB<br>
dialnorm_Maximum : -27<br>
dialnorm_Maximum : -27 dB<br>
dialnorm_Count : 161<br>
compr_Average : 0.50<br>
compr_Average : 0.50 dB<br>
compr_Minimum : -2.50<br>
compr_Minimum : -2.50 dB<br>
compr_Maximum : 1.49<br>
compr_Maximum : 1.49 dB<br>
compr_Count : 148<br>
dynrng_Average : 0.46<br>
dynrng_Average : 0.46 dB<br>
dynrng_Minimum : -2.32<br>
dynrng_Minimum : -2.32 dB<br>
dynrng_Maximum : 1.49<br>
dynrng_Maximum : 1.49 dB<br>
dynrng_Count : 158<br>
SamplingCount_Source : General_Duration<br>
Duration_Source : General_Duration<br>
Source : VTS_02_1.VOB<br>
Audio #2<br>
ID : 189 (0xBD)-129 (0x81)<br>
Format : AC-3<br>
Format/Info : Audio Coding 3<br>
Commercial name : Dolby Digital<br>
Muxing mode : DVD-Video<br>
Duration : 46 min 18 s<br>
Bit rate mode : Constant<br>
Bit rate : 448 kb/s<br>
Channel(s) : 6 channels<br>
Channel layout : L R C LFE Ls Rs<br>
Sampling rate : 48.0 kHz<br>
Frame rate : 31.250 FPS (1536 SPF)<br>
Compression mode : Lossy<br>
Stream size : 149 MiB (4%)<br>
Service kind : Complete Main<br>
bsid : 8<br>
Dialog Normalization : -27<br>
Dialog Normalization : -27 dB<br>
compr : -0.28<br>
compr : -0.28 dB<br>
acmod : 7<br>
lfeon : 1<br>
cmixlev : -3.0<br>
cmixlev : -3.0 dB<br>
surmixlev : -3 dB<br>
surmixlev : -3 dB<br>
dialnorm_Average : -27<br>
dialnorm_Average : -27 dB<br>
dialnorm_Minimum : -27<br>
dialnorm_Minimum : -27 dB<br>
dialnorm_Maximum : -27<br>
dialnorm_Maximum : -27 dB<br>
dialnorm_Count : 161<br>
compr_Average : 2.18<br>
compr_Average : 2.18 dB<br>
compr_Minimum : 0.53<br>
compr_Minimum : 0.53 dB<br>
compr_Maximum : 4.22<br>
compr_Maximum : 4.22 dB<br>
compr_Count : 145<br>
dynrng_Average : 2.01<br>
dynrng_Average : 2.01 dB<br>
dynrng_Minimum : -0.42<br>
dynrng_Minimum : -0.42 dB<br>
dynrng_Maximum : 4.38<br>
dynrng_Maximum : 4.38 dB<br>
dynrng_Count : 161<br>
SamplingCount_Source : General_Duration<br>
Duration_Source : General_Duration<br>
Source : VTS_02_1.VOB<br>
Audio #3<br>
ID : 189 (0xBD)-130 (0x82)<br>
Format : AC-3<br>
Format/Info : Audio Coding 3<br>
Commercial name : Dolby Digital<br>
Muxing mode : DVD-Video<br>
Duration : 46 min 18 s<br>
Bit rate mode : Constant<br>
Bit rate : 448 kb/s<br>
Channel(s) : 6 channels<br>
Channel layout : L R C LFE Ls Rs<br>
Sampling rate : 48.0 kHz<br>
Frame rate : 31.250 FPS (1536 SPF)<br>
Compression mode : Lossy<br>
Stream size : 149 MiB (4%)<br>
Service kind : Complete Main<br>
bsid : 8<br>
Dialog Normalization : -27<br>
Dialog Normalization : -27 dB<br>
compr : -0.28<br>
compr : -0.28 dB<br>
acmod : 7<br>
lfeon : 1<br>
cmixlev : -3.0<br>
cmixlev : -3.0 dB<br>
surmixlev : -3 dB<br>
surmixlev : -3 dB<br>
dialnorm_Average : -27<br>
dialnorm_Average : -27 dB<br>
dialnorm_Minimum : -27<br>
dialnorm_Minimum : -27 dB<br>
dialnorm_Maximum : -27<br>
dialnorm_Maximum : -27 dB<br>
dialnorm_Count : 161<br>
compr_Average : 2.82<br>
compr_Average : 2.82 dB<br>
compr_Minimum : 0.53<br>
compr_Minimum : 0.53 dB<br>
compr_Maximum : 5.16<br>
compr_Maximum : 5.16 dB<br>
compr_Count : 147<br>
dynrng_Average : 2.04<br>
dynrng_Average : 2.04 dB<br>
dynrng_Minimum : 0.00<br>
dynrng_Minimum : 0.00 dB<br>
dynrng_Maximum : 3.70<br>
dynrng_Maximum : 3.70 dB<br>
dynrng_Count : 157<br>
SamplingCount_Source : General_Duration<br>
Duration_Source : General_Duration<br>
Source : VTS_02_1.VOB<br>
Audio #4<br>
ID : 189 (0xBD)-131 (0x83)<br>
Format : AC-3<br>
Format/Info : Audio Coding 3<br>
Commercial name : Dolby Digital<br>
Muxing mode : DVD-Video<br>
Duration : 46 min 18 s<br>
Bit rate mode : Constant<br>
Bit rate : 448 kb/s<br>
Channel(s) : 6 channels<br>
Channel layout : L R C LFE Ls Rs<br>
Sampling rate : 48.0 kHz<br>
Frame rate : 31.250 FPS (1536 SPF)<br>
Compression mode : Lossy<br>
Stream size : 149 MiB (4%)<br>
Service kind : Complete Main<br>
bsid : 8<br>
Dialog Normalization : -27<br>
Dialog Normalization : -27 dB<br>
compr : -0.28<br>
compr : -0.28 dB<br>
acmod : 7<br>
lfeon : 1<br>
cmixlev : -3.0<br>
cmixlev : -3.0 dB<br>
surmixlev : -3 dB<br>
surmixlev : -3 dB<br>
dialnorm_Average : -27<br>
dialnorm_Average : -27 dB<br>
dialnorm_Minimum : -27<br>
dialnorm_Minimum : -27 dB<br>
dialnorm_Maximum : -27<br>
dialnorm_Maximum : -27 dB<br>
dialnorm_Count : 161<br>
compr_Average : 3.57<br>
compr_Average : 3.57 dB<br>
compr_Minimum : 0.53<br>
compr_Minimum : 0.53 dB<br>
compr_Maximum : 5.46<br>
compr_Maximum : 5.46 dB<br>
compr_Count : 147<br>
dynrng_Average : 2.49<br>
dynrng_Average : 2.49 dB<br>
dynrng_Minimum : 0.00<br>
dynrng_Minimum : 0.00 dB<br>
dynrng_Maximum : 4.38<br>
dynrng_Maximum : 4.38 dB<br>
dynrng_Count : 156<br>
SamplingCount_Source : General_Duration<br>
Duration_Source : General_Duration<br>
Source : VTS_02_1.VOB<br>
Audio #5<br>
ID : 189 (0xBD)-132 (0x84)<br>
Format : AC-3<br>
Format/Info : Audio Coding 3<br>
Commercial name : Dolby Digital<br>
Muxing mode : DVD-Video<br>
Duration : 46 min 18 s<br>
Bit rate mode : Constant<br>
Bit rate : 448 kb/s<br>
Channel(s) : 6 channels<br>
Channel layout : L R C LFE Ls Rs<br>
Sampling rate : 48.0 kHz<br>
Frame rate : 31.250 FPS (1536 SPF)<br>
Compression mode : Lossy<br>
Stream size : 149 MiB (4%)<br>
Service kind : Complete Main<br>
bsid : 8<br>
Dialog Normalization : -27<br>
Dialog Normalization : -27 dB<br>
compr : -0.28<br>
compr : -0.28 dB<br>
acmod : 7<br>
lfeon : 1<br>
cmixlev : -3.0<br>
cmixlev : -3.0 dB<br>
surmixlev : -3 dB<br>
surmixlev : -3 dB<br>
dialnorm_Average : -27<br>
dialnorm_Average : -27 dB<br>
dialnorm_Minimum : -27<br>
dialnorm_Minimum : -27 dB<br>
dialnorm_Maximum : -27<br>
dialnorm_Maximum : -27 dB<br>
dialnorm_Count : 161<br>
compr_Average : 4.14<br>
compr_Average : 4.14 dB<br>
compr_Minimum : 0.53<br>
compr_Minimum : 0.53 dB<br>
compr_Maximum : 5.46<br>
compr_Maximum : 5.46 dB<br>
compr_Count : 146<br>
dynrng_Average : 2.90<br>
dynrng_Average : 2.90 dB<br>
dynrng_Minimum : 0.00<br>
dynrng_Minimum : 0.00 dB<br>
dynrng_Maximum : 4.70<br>
dynrng_Maximum : 4.70 dB<br>
dynrng_Count : 157<br>
SamplingCount_Source : General_Duration<br>
Duration_Source : General_Duration<br>
Source : VTS_02_1.VOB<br>
Audio #6<br>
ID : 189 (0xBD)-133 (0x85)<br>
Format : AC-3<br>
Format/Info : Audio Coding 3<br>
Commercial name : Dolby Digital<br>
Muxing mode : DVD-Video<br>
Duration : 46 min 18 s<br>
Bit rate mode : Constant<br>
Bit rate : 448 kb/s<br>
Channel(s) : 6 channels<br>
Channel layout : L R C LFE Ls Rs<br>
Sampling rate : 48.0 kHz<br>
Frame rate : 31.250 FPS (1536 SPF)<br>
Compression mode : Lossy<br>
Stream size : 149 MiB (4%)<br>
Service kind : Complete Main<br>
bsid : 8<br>
Dialog Normalization : -27<br>
Dialog Normalization : -27 dB<br>
compr : -0.28<br>
compr : -0.28 dB<br>
acmod : 7<br>
lfeon : 1<br>
cmixlev : -3.0<br>
cmixlev : -3.0 dB<br>
surmixlev : -3 dB<br>
surmixlev : -3 dB<br>
dialnorm_Average : -27<br>
dialnorm_Average : -27 dB<br>
dialnorm_Minimum : -27<br>
dialnorm_Minimum : -27 dB<br>
dialnorm_Maximum : -27<br>
dialnorm_Maximum : -27 dB<br>
dialnorm_Count : 161<br>
compr_Average : 1.54<br>
compr_Average : 1.54 dB<br>
compr_Minimum : -1.48<br>
compr_Minimum : -1.48 dB<br>
compr_Maximum : 3.52<br>
compr_Maximum : 3.52 dB<br>
compr_Count : 151<br>
dynrng_Average : 1.47<br>
dynrng_Average : 1.47 dB<br>
dynrng_Minimum : -1.48<br>
dynrng_Minimum : -1.48 dB<br>
dynrng_Maximum : 3.70<br>
dynrng_Maximum : 3.70 dB<br>
dynrng_Count : 160<br>
SamplingCount_Source : General_Duration<br>
Duration_Source : General_Duration<br>
Source : VTS_02_1.VOB<br>
Audio #7<br>
ID : 189 (0xBD)-134 (0x86)<br>
Format : AC-3<br>
Format/Info : Audio Coding 3<br>
Commercial name : Dolby Digital<br>
Muxing mode : DVD-Video<br>
Duration : 46 min 18 s<br>
Bit rate mode : Constant<br>
Bit rate : 448 kb/s<br>
Channel(s) : 6 channels<br>
Channel layout : L R C LFE Ls Rs<br>
Sampling rate : 48.0 kHz<br>
Frame rate : 31.250 FPS (1536 SPF)<br>
Compression mode : Lossy<br>
Stream size : 149 MiB (4%)<br>
Service kind : Complete Main<br>
bsid : 8<br>
Dialog Normalization : -27<br>
Dialog Normalization : -27 dB<br>
compr : -0.28<br>
compr : -0.28 dB<br>
acmod : 7<br>
lfeon : 1<br>
cmixlev : -3.0<br>
cmixlev : -3.0 dB<br>
surmixlev : -3 dB<br>
surmixlev : -3 dB<br>
dialnorm_Average : -27<br>
dialnorm_Average : -27 dB<br>
dialnorm_Minimum : -27<br>
dialnorm_Minimum : -27 dB<br>
dialnorm_Maximum : -27<br>
dialnorm_Maximum : -27 dB<br>
dialnorm_Count : 161<br>
compr_Average : 2.67<br>
compr_Average : 2.67 dB<br>
compr_Minimum : -1.16<br>
compr_Minimum : -1.16 dB<br>
compr_Maximum : 4.86<br>
compr_Maximum : 4.86 dB<br>
compr_Count : 142<br>
dynrng_Average : 1.91<br>
dynrng_Average : 1.91 dB<br>
dynrng_Minimum : -1.01<br>
dynrng_Minimum : -1.01 dB<br>
dynrng_Maximum : 3.70<br>
dynrng_Maximum : 3.70 dB<br>
dynrng_Count : 159<br>
SamplingCount_Source : General_Duration<br>
Duration_Source : General_Duration<br>
Source : VTS_02_1.VOB<br>
Audio #8<br>
ID : 189 (0xBD)-135 (0x87)<br>
Format : AC-3<br>
Format/Info : Audio Coding 3<br>
Commercial name : Dolby Digital<br>
Muxing mode : DVD-Video<br>
Duration : 46 min 18 s<br>
Bit rate mode : Constant<br>
Bit rate : 448 kb/s<br>
Channel(s) : 6 channels<br>
Channel layout : L R C LFE Ls Rs<br>
Sampling rate : 48.0 kHz<br>
Frame rate : 31.250 FPS (1536 SPF)<br>
Compression mode : Lossy<br>
Stream size : 149 MiB (4%)<br>
Service kind : Complete Main<br>
bsid : 8<br>
Dialog Normalization : -27<br>
Dialog Normalization : -27 dB<br>
compr : -0.28<br>
compr : -0.28 dB<br>
acmod : 7<br>
lfeon : 1<br>
cmixlev : -3.0<br>
cmixlev : -3.0 dB<br>
surmixlev : -3 dB<br>
surmixlev : -3 dB<br>
dialnorm_Average : -27<br>
dialnorm_Average : -27 dB<br>
dialnorm_Minimum : -27<br>
dialnorm_Minimum : -27 dB<br>
dialnorm_Maximum : -27<br>
dialnorm_Maximum : -27 dB<br>
dialnorm_Count : 161<br>
compr_Average : 0.60<br>
compr_Average : 0.60 dB<br>
compr_Minimum : -1.16<br>
compr_Minimum : -1.16 dB<br>
compr_Maximum : 1.49<br>
compr_Maximum : 1.49 dB<br>
compr_Count : 149<br>
dynrng_Average : 0.59<br>
dynrng_Average : 0.59 dB<br>
dynrng_Minimum : -1.32<br>
dynrng_Minimum : -1.32 dB<br>
dynrng_Maximum : 1.49<br>
dynrng_Maximum : 1.49 dB<br>
dynrng_Count : 160<br>
SamplingCount_Source : General_Duration<br>
Duration_Source : General_Duration<br>
Source : VTS_02_1.VOB<br>
Menu<br>
Duration : 46 min 18 s<br>
00:00:00.000 : Chapter 1<br>
00:02:51.933 : Chapter 2<br>
00:09:53.433 : Chapter 3<br>
00:14:52.433 : Chapter 4<br>
00:25:15.433 : Chapter 5<br>
00:31:28.433 : Chapter 6<br>
00:33:51.933 : Chapter 7<br>
00:40:18.933 : Chapter 8<br>
00:45:30.433 : Chapter 9<br>
List (Audio) : 0 / 1 / 2 / 3 / 4 / 5 / 6 / 7<br>
Source : VTS_02_1.VOB<br>
General<br>
Complete name : F:\BLURAY MUSIC\The Flaming Lips - Zaireeka dvd video\VIDEO_TS\VTS_02_1.VOB<br>
CompleteName_Last : F:\BLURAY MUSIC\The Flaming Lips - Zaireeka dvd video\VIDEO_TS\VTS_02_4.VOB<br>
Format : MPEG-PS<br>
File size : 3.89 GiB<br>
Duration : 46 min 20 s<br>
Overall bit rate mode : Variable<br>
Overall bit rate : 12.0 Mb/s<br>
Frame rate : 29.970 FPS<br>
Video<br>
ID : 224 (0xE0)<br>
Format : MPEG Video<br>
Format version : Version 2<br>
Format profile : Main@Main<br>
Format settings : BVOP<br>
Format settings, BVOP : Yes<br>
Format settings, Matrix : Default<br>
Format settings, GOP : M=3, N=15<br>
Format settings, picture structure : Frame<br>
Duration : 46 min 20 s<br>
Bit rate mode : Variable<br>
Bit rate : 8 206 kb/s<br>
Maximum bit rate : 9 800 kb/s<br>
Width : 720 pixels<br>
Height : 480 pixels<br>
Display aspect ratio : 4:3<br>
Frame rate : 29.970 (30000/1001) FPS<br>
Standard : NTSC<br>
Color space : YUV<br>
Chroma subsampling : 4:2:0<br>
Bit depth : 8 bits<br>
Scan type : Interlaced<br>
Scan order : Bottom Field First<br>
Compression mode : Lossy<br>
Bits/(Pixel*Frame) : 0.792<br>
Time code of first frame : 00:00:00:00<br>
Time code source : Group of pictures header<br>
GOP, Open/Closed : Open<br>
GOP, Open/Closed of first frame : Closed<br>
Stream size : 2.66 GiB (68%)<br>
Audio #1<br>
ID : 189 (0xBD)-128 (0x80)<br>
Format : AC-3<br>
Format/Info : Audio Coding 3<br>
Commercial name : Dolby Digital<br>
Muxing mode : DVD-Video<br>
Duration : 46 min 20 s<br>
Bit rate mode : Constant<br>
Bit rate : 448 kb/s<br>
Channel(s) : 6 channels<br>
Channel layout : L R C LFE Ls Rs<br>
Sampling rate : 48.0 kHz<br>
Frame rate : 31.250 FPS (1536 SPF)<br>
Compression mode : Lossy<br>
Stream size : 149 MiB (4%)<br>
Service kind : Complete Main<br>
Dialog Normalization : -27 dB<br>
compr : -0.28 dB<br>
cmixlev : -3.0 dB<br>
surmixlev : -3 dB<br>
dialnorm_Average : -27 dB<br>
dialnorm_Minimum : -27 dB<br>
dialnorm_Maximum : -27 dB<br>
Audio #2<br>
ID : 189 (0xBD)-129 (0x81)<br>
Format : AC-3<br>
Format/Info : Audio Coding 3<br>
Commercial name : Dolby Digital<br>
Muxing mode : DVD-Video<br>
Duration : 46 min 20 s<br>
Bit rate mode : Constant<br>
Bit rate : 448 kb/s<br>
Channel(s) : 6 channels<br>
Channel layout : L R C LFE Ls Rs<br>
Sampling rate : 48.0 kHz<br>
Frame rate : 31.250 FPS (1536 SPF)<br>
Compression mode : Lossy<br>
Stream size : 149 MiB (4%)<br>
Service kind : Complete Main<br>
Dialog Normalization : -27 dB<br>
compr : -0.28 dB<br>
cmixlev : -3.0 dB<br>
surmixlev : -3 dB<br>
dialnorm_Average : -27 dB<br>
dialnorm_Minimum : -27 dB<br>
dialnorm_Maximum : -27 dB<br>
Audio #3<br>
ID : 189 (0xBD)-130 (0x82)<br>
Format : AC-3<br>
Format/Info : Audio Coding 3<br>
Commercial name : Dolby Digital<br>
Muxing mode : DVD-Video<br>
Duration : 46 min 20 s<br>
Bit rate mode : Constant<br>
Bit rate : 448 kb/s<br>
Channel(s) : 6 channels<br>
Channel layout : L R C LFE Ls Rs<br>
Sampling rate : 48.0 kHz<br>
Frame rate : 31.250 FPS (1536 SPF)<br>
Compression mode : Lossy<br>
Stream size : 149 MiB (4%)<br>
Service kind : Complete Main<br>
Dialog Normalization : -27 dB<br>
compr : -0.28 dB<br>
cmixlev : -3.0 dB<br>
surmixlev : -3 dB<br>
dialnorm_Average : -27 dB<br>
dialnorm_Minimum : -27 dB<br>
dialnorm_Maximum : -27 dB<br>
Audio #4<br>
ID : 189 (0xBD)-131 (0x83)<br>
Format : AC-3<br>
Format/Info : Audio Coding 3<br>
Commercial name : Dolby Digital<br>
Muxing mode : DVD-Video<br>
Duration : 46 min 20 s<br>
Bit rate mode : Constant<br>
Bit rate : 448 kb/s<br>
Channel(s) : 6 channels<br>
Channel layout : L R C LFE Ls Rs<br>
Sampling rate : 48.0 kHz<br>
Frame rate : 31.250 FPS (1536 SPF)<br>
Compression mode : Lossy<br>
Stream size : 149 MiB (4%)<br>
Service kind : Complete Main<br>
Dialog Normalization : -27 dB<br>
compr : -0.28 dB<br>
cmixlev : -3.0 dB<br>
surmixlev : -3 dB<br>
dialnorm_Average : -27 dB<br>
dialnorm_Minimum : -27 dB<br>
dialnorm_Maximum : -27 dB<br>
Audio #5<br>
ID : 189 (0xBD)-132 (0x84)<br>
Format : AC-3<br>
Format/Info : Audio Coding 3<br>
Commercial name : Dolby Digital<br>
Muxing mode : DVD-Video<br>
Duration : 46 min 20 s<br>
Bit rate mode : Constant<br>
Bit rate : 448 kb/s<br>
Channel(s) : 6 channels<br>
Channel layout : L R C LFE Ls Rs<br>
Sampling rate : 48.0 kHz<br>
Frame rate : 31.250 FPS (1536 SPF)<br>
Compression mode : Lossy<br>
Stream size : 149 MiB (4%)<br>
Service kind : Complete Main<br>
Dialog Normalization : -27 dB<br>
compr : -0.28 dB<br>
cmixlev : -3.0 dB<br>
surmixlev : -3 dB<br>
dialnorm_Average : -27 dB<br>
dialnorm_Minimum : -27 dB<br>
dialnorm_Maximum : -27 dB<br>
Audio #6<br>
ID : 189 (0xBD)-133 (0x85)<br>
Format : AC-3<br>
Format/Info : Audio Coding 3<br>
Commercial name : Dolby Digital<br>
Muxing mode : DVD-Video<br>
Duration : 46 min 20 s<br>
Bit rate mode : Constant<br>
Bit rate : 448 kb/s<br>
Channel(s) : 6 channels<br>
Channel layout : L R C LFE Ls Rs<br>
Sampling rate : 48.0 kHz<br>
Frame rate : 31.250 FPS (1536 SPF)<br>
Compression mode : Lossy<br>
Stream size : 149 MiB (4%)<br>
Service kind : Complete Main<br>
Dialog Normalization : -27 dB<br>
compr : -0.28 dB<br>
cmixlev : -3.0 dB<br>
surmixlev : -3 dB<br>
dialnorm_Average : -27 dB<br>
dialnorm_Minimum : -27 dB<br>
dialnorm_Maximum : -27 dB<br>
Audio #7<br>
ID : 189 (0xBD)-134 (0x86)<br>
Format : AC-3<br>
Format/Info : Audio Coding 3<br>
Commercial name : Dolby Digital<br>
Muxing mode : DVD-Video<br>
Duration : 46 min 20 s<br>
Bit rate mode : Constant<br>
Bit rate : 448 kb/s<br>
Channel(s) : 6 channels<br>
Channel layout : L R C LFE Ls Rs<br>
Sampling rate : 48.0 kHz<br>
Frame rate : 31.250 FPS (1536 SPF)<br>
Compression mode : Lossy<br>
Stream size : 149 MiB (4%)<br>
Service kind : Complete Main<br>
Dialog Normalization : -27 dB<br>
compr : -0.28 dB<br>
cmixlev : -3.0 dB<br>
surmixlev : -3 dB<br>
dialnorm_Average : -27 dB<br>
dialnorm_Minimum : -27 dB<br>
dialnorm_Maximum : -27 dB<br>
Audio #8<br>
ID : 189 (0xBD)-135 (0x87)<br>
Format : AC-3<br>
Format/Info : Audio Coding 3<br>
Commercial name : Dolby Digital<br>
Muxing mode : DVD-Video<br>
Duration : 46 min 20 s<br>
Bit rate mode : Constant<br>
Bit rate : 448 kb/s<br>
Channel(s) : 6 channels<br>
Channel layout : L R C LFE Ls Rs<br>
Sampling rate : 48.0 kHz<br>
Frame rate : 31.250 FPS (1536 SPF)<br>
Compression mode : Lossy<br>
Stream size : 149 MiB (4%)<br>
Service kind : Complete Main<br>
Dialog Normalization : -27 dB<br>
compr : -0.28 dB<br>
cmixlev : -3.0 dB<br>
surmixlev : -3 dB<br>
dialnorm_Average : -27 dB<br>
dialnorm_Minimum : -27 dB<br>
dialnorm_Maximum : -27 dB<br>
Menu<br>
Format : DVD-Video</div>
</div><br>
Zaireeka<br>
<div class="bbCodeBlock bbCodeVfcHH HiddenContent">
<div class="attribution type">Hidden Content:</div>
<blockquote>You must reply before you can see the hidden data contained here.</blockquote>
</div>
<div class="bbCodeBlock bbCodeVfcHH HiddenContent">
<div class="attribution type">Hidden Content:</div>
<blockquote>You must either reply or click 'Like' to see the hidden information contained here.</blockquote>
</div>
<div class="messageTextEndMarker">&nbsp;</div>
</blockquote>
</article>]]></description>
                <author><![CDATA[schism]]></author>
                </item>

                
                <item>
                <title><![CDATA[【Albums (lossy)】Dolby Atmos - Jean-Michel Jarre - OXYMORE (Homage to Pierre Henry) [E-AC3 JOC | 16-bit 48 kHz | 5.1 | 768 kb/s]]]></title>
                <link><![CDATA[https://sharemania.us/threads/jean-michel-jarre-oxymore-homage-to-pierre-henry-e-ac3-joc-16-bit-48-khz-5-1-768-kb-s.251429/]]></link>
                <description><![CDATA[<article>
<blockquote class="messageText SelectQuoteContainer ugc baseHtml">
<b><img src="https://images2.imgbox.com/58/7f/6ZZh3aEf_o.jpg" class="bbCodeImage LbImage" alt="[​IMG]" data-url="https://images2.imgbox.com/58/7f/6ZZh3aEf_o.jpg" style=""><br>
<br>
Genre: <span style="color: rgb(0, 89, 179)">Electronic</span><br>
Style: <span style="color: rgb(0, 89, 179)">Techno</span><br>
Year: <span style="color: rgb(0, 89, 179)">2022</span><br>
Source: <a href="https://www.qobuz.com/fr-fr/album/oxymore-jean-michel-jarre/alyghezkg7dpb" target="_blank" class="externalLink" rel="nofollow"><span style="color: rgb(0, 89, 179)">Apple Music, with help of SonMaxime</span></a></b><br>
<br>
"<b>OXYMORE</b>" is the twenty-second studio album by French musician and composer Jean-Michel Jarre. It was released on 21 October 2022 through Sony and Columbia.<br>
<br>
Originally, Jarre was planning a collaboration with the French composer Pierre Henry, one of Jarre's influences, but Henry died in 2017 and the collaboration was never completed. Henry had however recorded some sound bites for the collaboration, which Jarre used for the album. Jarre then added his own compositions on top.<br>
Jarre stated: <i>"I chose some of his sounds precisely from one track to another. 'Oxymore' is also a tribute to the French way of approaching modern music, electroacoustic music, and my early studies at the GRM where Pierre definitely influenced the future of electronic music worldwide, along with Pierre Schaeffer."</i><br>
<br>
Jarre stated that the true sound is not stereo but can be heard in 360 degrees. He also stated that the album can be best heard with headphones or more advanced audio systems. <i>Oxymore</i> was released on CD, double vinyl and digital in stereo, binaural, 5.1 and Dolby Atmos mixes. The physical product also includes a code to access the highest quality binaural master. <a href="https://sharemania.us/threads/jean-michel-jarre-oxymore-binaural-headphone-mix-flac-24-bit-48-khz.216567/" class="internalLink">You can download the Hi-Res Binaural mix here (FLAC 24-bit 48 kHz)</a>.<br>
<br>
<b>Tracklist</b><br>
01. AGORA <span style="color: rgb(0, 89, 179)">01:34</span><br>
02. OXYMORE <span style="color: rgb(0, 89, 179)">04:45</span><br>
03. NEON LIPS <span style="color: rgb(0, 89, 179)">04:27</span><br>
04. SONIC LAND <span style="color: rgb(0, 89, 179)">06:01</span><br>
05. ANIMAL GENESIS <span style="color: rgb(0, 89, 179)">05:46</span><br>
06. SYNTHY SISTERS <span style="color: rgb(0, 89, 179)">03:20</span><br>
07. SEX IN THE MACHINE <span style="color: rgb(0, 89, 179)">05:45</span><br>
08. ZEITGEIST <span style="color: rgb(0, 89, 179)">03:06</span><br>
09. CRYSTAL GARDEN <span style="color: rgb(0, 89, 179)">04:09</span><br>
10. BRUTALISM <span style="color: rgb(0, 89, 179)">04:41</span><br>
11. EPICA <span style="color: rgb(0, 89, 179)">05:25</span><br>
<br>
<b>Note to the peeps @ RuTracker: Give credit if you post the work of someone else!</b><br>
- Hurby4 aka ADHDerby<br>
<br>
<div class="bbCodeBlock bbCodeVfcHH HiddenContent">
<div class="attribution type">Hidden Content:</div>
<blockquote>You must reply before you can see the hidden data contained here.</blockquote>
</div>
<div class="messageTextEndMarker">&nbsp;</div>
</blockquote>
</article>]]></description>
                <author><![CDATA[ADHDerby]]></author>
                </item>

                </channel></rss>